# xmcd CD database file
#
# Track frame offsets:
#	150
#	27902
#	57805
#	90695
#	96677
#	123337
#	148442
#	154170
#	181507
#	220757
#
# Disc length: 3195 seconds
#
# Revision: 0
# Processed by: cddbd v1.5.1PL0 Copyright (c) Steve Scherf et al.
# Submitted via: CDex 1.60beta1
#
DISCID=8b0c790a
DTITLE=今出宏゜ - Mongo
DYEAR=2001
DGENRE=Jazz
TTITLE0=魂崇里　consu-sato
TTITLE1=All Things
TTITLE2=Peace-X
TTITLE3=interlude 壱
TTITLE4=Sister Moon
TTITLE5=Waiting In Vain
TTITLE6=interlude 弐
TTITLE7=No ceu Flutuar
TTITLE8=The Other Sides
TTITLE9=For The Love Of You
EXTD=YEAR: 2001
EXTT0=
EXTT1=
EXTT2=
EXTT3=
EXTT4=
EXTT5=
EXTT6=
EXTT7=
EXTT8=
EXTT9=
PLAYORDER=
